<?xml version="1.0" standalone="no"?>
<!DOCTYPE svg PUBLIC "-//W3C//DTD SVG 20010904//EN"
 "http://www.w3.org/TR/2001/REC-SVG-20010904/DTD/svg10.dtd">
<svg version="1.0" xmlns="http://www.w3.org/2000/svg"
 width="512.000000pt" height="512.000000pt" viewBox="0 0 512.000000 512.000000"
 preserveAspectRatio="xMidYMid meet">
<metadata>
Created by potrace 1.14, written by Peter Selinger 2001-2017
</metadata>
<g transform="translate(0.000000,512.000000) scale(0.100000,-0.100000)"
fill="#000000" stroke="none">
<path d="M365 5085 c-89 -16 -133 -35 -204 -87 -42 -31 -62 -54 -78 -92 -29
-67 -42 -122 -42 -171 0 -22 2 -1007 5 -2190 2 -1182 5 -2175 5 -2205 1 -30 8
-64 15 -75 8 -11 14 -31 14 -45 0 -17 19 -43 58 -82 48 -48 69 -61 132 -81
l75 -25 2150 0 c1583 0 2175 3 2245 12 83 10 105 17 170 55 101 59 121 77 111
105 -8 21 -3 39 40 131 11 24 15 43 9 50 -5 6 -7 24 -4 41 4 16 8 976 10 2134
1 1158 3 2123 3 2145 1 38 -4 85 -13 132 -6 27 -31 77 -68 130 -22 32 -46 51
-101 77 -96 46 -158 56 -307 50 -158 -7 -3815 -7 -4010 0 -96 3 -169 0 -215
-9z m4215 -81 c0 -1 -39 -24 -87 -52 -49 -27 -171 -98 -272 -156 -101 -58
-186 -106 -189 -106 -3 0 21 21 54 46 32 25 77 60 98 77 21 18 84 69 140 114
l101 82 78 -2 c42 -1 77 -3 77 -3z m-360 -13 c0 -5 -96 -64 -212 -131 -117
-67 -206 -115 -198 -107 8 8 77 63 153 121 126 98 143 108 195 115 31 5 58 9
60 10 1 0 2 -3 2 -8z m-3570 -11 c0 -3 -26 -20 -57 -37 -32 -18 -83 -47 -113
-64 l-55 -31 30 28 c123 114 124 115 160 112 19 -1 35 -5 35 -8z m280 -1 c0
-6 -84 -55 -310 -183 -19 -10 -30 -15 -25 -9 22 24 230 185 246 192 23 8 89 8
89 0z m465 2 c10 -1 -25 -25 -90 -61 -36 -20 -154 -87 -198 -113 -80 -47 -122
-69 -117 -64 3 3 76 59 163 124 163 123 160 122 242 114z m424 -4 c-19 -15
-198 -114 -195 -108 10 15 151 109 171 113 19 4 33 1 24 -5z m431 2 c0 -6
-139 -88 -300 -177 -62 -35 -52 -26 97 85 109 81 138 98 167 98 20 0 36 -3 36
-6z m220 2 c0 -5 -24 -22 -52 -39 -29 -16 -71 -40 -93 -52 -50 -29 -37 -15 38
39 46 34 83 55 105 60 1 1 2 -3 2 -8z m247 -18 c-15 -7 -92 -51 -172 -98 -80
-46 -145 -82 -145 -81 0 10 258 194 275 198 11 2 31 2 44 -1 l24 -4 -26 -14z
m527 15 c-4 -6 -368 -219 -388 -227 -21 -8 257 206 289 223 22 12 106 15 99 4z
m225 -2 c-10 -9 -199 -115 -199 -111 0 8 158 113 176 117 19 4 31 1 23 -6z
m447 1 c3 -2 -304 -180 -320 -186 -13 -4 222 172 249 187 15 8 63 7 71 -1z
m-3580 -28 c-26 -17 -49 -29 -51 -27 -7 7 23 38 46 47 49 20 52 10 5 -20z
m1263 27 c-2 -2 -15 -9 -29 -15 -24 -11 -24 -11 -6 3 16 13 49 24 35 12z
m1326 -24 c-188 -104 -188 -104 -70 -17 39 29 70 44 90 45 28 0 27 -2 -20 -28z
m734 25 c-2 -1 -13 -9 -24 -17 -19 -14 -19 -14 -6 3 7 9 18 17 24 17 6 0 8 -1
6 -3z m1113 -23 c28 -15 29 -16 12 -28 -62 -43 -324 -186 -340 -186 -22 1 -23
0 125 120 51 41 102 83 114 93 25 21 49 22 89 1z m-3237 -14 c-3 -5 -12 -10
-18 -10 -7 0 -6 4 3 10 19 12 23 12 15 0z m3375 -85 c7 -9 11 -17 9 -18 -23
-18 -203 -116 -206 -113 -4 4 168 145 178 146 4 0 12 -7 19 -15z m-4702 -87
c-8 -7 -33 -31 -56 -53 -38 -35 -42 -37 -39 -16 2 14 20 34 48 51 46 30 70 39
47 18z m122 -82 c-31 -27 -220 -176 -226 -176 -3 0 -4 12 -2 27 2 22 21 37
118 94 120 71 134 78 110 55z m3540 -10 c0 -12 -345 -277 -357 -274 -9 2 -17
16 -18 33 -2 30 3 34 179 137 170 100 196 114 196 104z m300 -25 c0 -4 -53
-51 -118 -103 -107 -87 -120 -94 -137 -82 -23 17 -40 12 -116 -32 -54 -32 -95
-46 -73 -25 13 13 427 251 436 251 5 0 8 -4 8 -9z m-3479 -29 c-14 -9 -70 -51
-125 -93 -85 -66 -102 -75 -118 -65 -18 10 -17 12 9 33 15 13 31 23 34 23 3 0
53 27 110 60 103 59 137 75 90 42z m1842 0 c-139 -112 -212 -160 -231 -155
-12 3 -22 8 -22 12 0 6 259 159 270 160 3 0 -5 -7 -17 -17z m967 5 c-30 -27
-229 -177 -235 -177 -3 0 -13 7 -21 15 -13 12 -2 21 83 71 54 31 116 68 138
80 45 27 56 30 35 11z m930 -10 c-12 -11 -184 -147 -227 -180 -9 -7 -15 -2
-21 14 -8 22 0 28 122 100 138 81 149 87 126 66z m-3037 -110 c-86 -64 -148
-103 -165 -105 -37 -2 -35 13 5 38 67 43 282 168 290 169 5 1 -54 -45 -130
-102z m612 95 c-92 -82 -216 -154 -215 -124 1 4 49 35 108 69 106 61 125 71
107 55z m1173 -7 c-3 -3 -57 -43 -119 -90 -102 -75 -114 -81 -117 -62 -2 12 0
23 5 24 4 2 58 32 118 68 104 61 125 72 113 60z m-1059 -81 c-13 -16 -69 -48
-69 -39 0 4 70 53 79 54 2 1 -2 -6 -10 -15z m521 12 c0 -11 -167 -120 -188
-122 -32 -3 -29 -1 85 66 112 66 103 61 103 56z m2379 -47 c-20 -12 -21 -5 -7
27 13 28 13 28 16 5 2 -13 -2 -27 -9 -32z m-3389 37 c0 -10 -103 -77 -108 -71
-4 4 0 11 8 15 8 5 33 20 55 34 46 28 45 27 45 22z m3270 -44 c-12 -21 -34
-46 -48 -54 -30 -17 -133 -25 -117 -9 14 14 179 109 184 105 1 -1 -7 -20 -19
-42z m-3963 15 c-48 -40 -137 -90 -145 -82 -4 4 -2 9 3 11 6 3 44 24 85 49 83
50 99 56 57 22z m1743 -71 c0 -2 -7 -7 -16 -10 -8 -3 -12 -2 -9 4 6 10 25 14
25 6z m-2311 -119 c-2 -1 -13 -9 -24 -17 -19 -14 -19 -14 -6 3 7 9 18 17 24
17 6 0 8 -1 6 -3z m260 -1 c-2 -2 -20 -11 -39 -21 l-35 -18 19 22 c11 11 28
21 39 21 11 0 18 -2 16 -4z m520 0 c-9 -9 -419 -244 -419 -240 0 2 73 58 162
124 156 116 163 120 211 120 28 0 48 -2 46 -4z m266 -27 c-55 -33 -348 -202
-435 -251 -30 -17 -52 -28 -47 -23 4 5 100 75 215 156 206 147 207 148 262
148 l55 0 -50 -30z m303 26 c-6 -6 -260 -155 -264 -155 -1 0 -38 -21 -81 -46
-115 -68 -78 -38 113 91 130 88 177 114 203 114 19 1 32 -1 29 -4z m232 1 c0
-2 -42 -27 -92 -56 -218 -124 -231 -127 -56 -14 96 62 148 87 148 70z m335 -4
c-6 -5 -122 -73 -260 -152 -137 -79 -344 -198 -460 -265 -313 -180 -310 -179
-305 -173 3 3 205 139 449 302 l444 296 70 0 c39 0 67 -4 62 -8z m270 -5 c-11
-8 -182 -107 -380 -222 -198 -114 -376 -216 -395 -228 -19 -11 -32 -17 -27
-12 4 5 170 113 370 242 334 214 366 233 407 233 40 0 43 -1 25 -13z m334 9
c-5 -5 -231 -136 -774 -448 -181 -105 -336 -195 -343 -201 -7 -5 -15 -8 -17
-5 -3 2 35 30 83 61 48 31 276 178 507 326 l420 270 64 1 c35 0 62 -2 60 -4z
m240 0 c-4 -3 -67 -40 -464 -268 -66 -38 -115 -65 -110 -59 6 5 125 82 265
170 172 107 265 160 284 160 16 1 27 -1 25 -3z m216 -10 c-11 -7 -128 -75
-260 -151 -132 -75 -255 -146 -272 -157 -54 -33 -37 -12 20 24 28 18 56 35 60
36 4 2 101 62 215 133 116 72 218 128 232 129 24 0 24 0 5 -14z m214 10 c-10
-10 -163 -97 -154 -87 14 15 138 90 149 91 5 0 7 -2 5 -4z m196 -37 c-38 -23
-85 -50 -103 -61 -18 -10 -93 -53 -165 -95 -73 -42 -238 -137 -367 -211 -129
-74 -250 -143 -267 -154 -18 -11 -33 -17 -33 -15 0 3 89 60 198 126 108 66
316 194 462 285 224 139 271 165 305 165 l40 1 -70 -41z m205 -20 c-58 -34
-125 -73 -150 -87 -47 -26 -199 -115 -260 -151 -19 -11 -41 -24 -49 -28 -8 -3
-64 -36 -125 -71 -177 -103 -196 -114 -196 -109 0 4 36 26 189 118 52 32 448
273 541 330 60 37 106 59 125 59 25 0 12 -10 -75 -61z m375 52 c-6 -4 -145
-86 -310 -181 -165 -95 -385 -222 -490 -283 -317 -183 -365 -209 -377 -205 -6
2 32 29 83 60 52 31 299 183 549 337 436 270 456 281 504 281 29 0 46 -4 41
-9z m304 5 c-5 -4 -679 -394 -961 -555 -108 -62 -204 -111 -213 -109 -9 1 226
152 522 335 l538 331 59 1 c33 1 57 -1 55 -3z m110 -61 c-62 -36 -121 -69
-129 -74 -8 -5 -76 -44 -150 -87 -74 -42 -148 -86 -163 -97 -16 -10 -30 -17
-32 -15 -3 2 65 47 151 99 352 213 396 239 418 239 11 0 -32 -29 -95 -65z
m284 18 c-2 -26 -5 -48 -6 -49 -2 -2 -535 -310 -808 -467 -170 -98 -229 -122
-243 -99 -2 4 28 27 67 51 40 25 95 59 122 76 66 42 868 535 871 535 1 0 0
-21 -3 -47z m-4874 -30 c-31 -39 -39 -45 -39 -29 0 8 10 22 22 30 29 21 34 20
17 -1z m51 -134 c-19 -16 -48 -39 -64 -51 -26 -19 -28 -19 -24 -3 1 11 28 34
58 52 68 41 75 41 30 2z m4809 -3 c-4 -3 -261 -152 -284 -164 -5 -3 -7 -2 -3
3 13 14 283 173 287 169 2 -2 2 -6 0 -8z m-4509 -81 c0 -7 -373 -284 -382
-285 -5 0 -8 15 -8 33 0 31 5 35 153 119 83 48 170 99 192 113 44 27 45 27 45
20z m4507 -66 l-2 -40 -145 -84 c-80 -46 -239 -138 -354 -204 -115 -67 -215
-121 -223 -121 -12 0 -14 4 -17 30 -1 9 720 459 736 460 4 0 7 -18 5 -41z
m-2493 6 c-10 -8 -23 -15 -28 -15 -6 0 -1 7 10 15 10 8 23 15 28 15 6 0 1 -7
-10 -15z m246 10 c0 -2 -10 -9 -22 -15 -22 -11 -22 -10 -4 4 21 17 26 19 26
11z m1490 0 c0 -2 -10 -9 -22 -15 -22 -11 -22 -10 -4 4 21 17 26 19 26 11z
m-4099 -35 c-13 -11 -28 -20 -35 -20 -6 0 3 9 19 19 39 25 46 25 16 1z m4559
-5 c0 -2 -10 -9 -22 -15 -22 -11 -22 -10 -4 4 21 17 26 19 26 11z m-4070 -9
c0 -3 -79 -60 -175 -128 -97 -68 -216 -151 -264 -185 l-88 -62 1 34 c0 19 6
38 11 43 9 9 264 158 385 225 30 16 71 40 90 53 39 25 40 26 40 20z m4359
-119 c-16 -13 -79 -48 -79 -44 0 7 63 47 74 47 5 0 7 -1 5 -3z m-109 -62 c0
-2 -10 -9 -22 -15 -22 -11 -22 -10 -4 4 21 17 26 19 26 11z m-4305 -33 c-13
-11 -464 -312 -468 -312 -1 0 -3 9 -4 20 -2 24 -6 22 261 177 201 117 232 133
211 115z m460 -21 c-9 -8 -893 -597 -921 -614 -7 -4 -10 10 -10 40 l1 46 465
268 c256 148 467 269 470 269 2 0 0 -4 -5 -9z m3953 -106 c-2 -2 -73 -43 -158
-93 -85 -49 -225 -129 -310 -179 -161 -93 -208 -120 -200 -110 17 18 655 395
663 390 4 -3 7 -6 5 -8z m-1128 -5 c0 -5 -5 -10 -11 -10 -5 0 -7 5 -4 10 3 6
8 10 11 10 2 0 4 -4 4 -10z m-3435 -106 c-32 -25 -298 -196 -314 -202 -9 -3
-12 0 -9 9 4 12 130 94 183 119 11 5 49 27 85 49 68 41 89 51 55 25z m4553
-59 c-6 -5 -794 -459 -848 -488 -30 -16 -59 -33 -65 -38 -42 -32 -375 -215
-375 -206 0 7 55 45 123 85 67 40 356 216 642 391 l520 318 3 -30 c2 -16 2
-30 0 -32z m-1923 -5 c-3 -5 -12 -10 -18 -10 -7 0 -6 4 3 10 19 12 23 12 15 0z
m995 -30 c0 -9 -74 -52 -125 -73 -36 -15 -2 10 53 38 29 15 55 31 58 36 7 12
14 11 14 -1z m-3280 -39 c0 -7 -650 -431 -662 -431 -2 0 -5 11 -6 25 -2 28 -1
29 213 153 77 44 210 121 295 171 174 101 160 94 160 82z m4200 -135 c-18 -17
-180 -113 -165 -97 10 10 165 108 175 110 2 1 -2 -5 -10 -13z m-1755 -15 c-10
-9 -142 -85 -260 -151 -33 -18 -71 -40 -85 -48 -14 -9 -20 -11 -15 -5 18 19
340 212 355 213 8 0 10 -3 5 -9z m-2462 -51 c-18 -16 -635 -410 -642 -410 -5
0 -8 17 -7 38 l1 37 325 187 c246 142 326 184 328 172 2 -9 0 -20 -5 -24z
m4037 -44 c0 -2 -7 -7 -16 -10 -8 -3 -12 -2 -9 4 6 10 25 14 25 6z m125 -36
c-3 -5 -12 -10 -18 -10 -7 0 -6 4 3 10 19 12 23 12 15 0z m60 -91 c-3 -12 -6
-23 -7 -24 -2 -1 -178 -104 -393 -227 -214 -124 -435 -251 -490 -283 -128 -74
-357 -206 -370 -213 -7 -3 -7 -2 0 5 6 5 66 44 135 85 128 77 215 130 785 477
182 110 333 201 337 201 4 0 5 -10 3 -21z m-4245 8 c0 -4 -37 -28 -346 -220
-137 -86 -257 -159 -265 -162 -10 -4 -16 0 -16 10 0 13 105 77 397 243 19 11
78 45 130 76 97 57 100 59 100 53z m2110 -2 c0 -2 -10 -9 -22 -15 -22 -11 -22
-10 -4 4 21 17 26 19 26 11z m420 -52 c0 -5 -46 -34 -103 -65 -56 -32 -127
-72 -157 -90 -100 -57 -43 -17 102 73 141 87 158 96 158 82z m-2512 -76 c-9
-7 -53 -34 -98 -62 -74 -45 -249 -153 -296 -182 -61 -37 -240 -147 -246 -150
-3 -2 -5 5 -4 14 2 10 27 32 57 49 264 151 409 235 494 285 94 55 131 74 93
46z m4229 -22 c0 -8 -7 -21 -16 -28 -12 -10 -999 -582 -1181 -684 l-25 -15 24
19 c43 32 1176 722 1187 722 6 1 11 -6 11 -14z m-3862 -15 c-3 -5 -16 -15 -28
-21 -19 -9 -19 -8 3 10 28 23 34 26 25 11z m485 -5 c0 -2 -10 -9 -22 -15 -22
-11 -22 -10 -4 4 21 17 26 19 26 11z m-50 -28 c0 -5 -163 -108 -317 -201 -7
-4 -13 -3 -13 3 0 8 170 115 230 144 8 4 33 19 55 32 41 26 45 27 45 22z m275
-7 c-3 -5 -16 -15 -28 -21 -19 -9 -19 -8 3 10 28 23 34 26 25 11z m-55 -34 c0
-2 -30 -22 -67 -44 -38 -21 -97 -57 -133 -79 -289 -179 -345 -212 -348 -203
-2 6 -2 13 -1 15 9 8 540 314 547 315 1 0 2 -2 2 -4z m3204 -69 c2 -14 0 -30
-4 -36 -3 -6 -55 -39 -116 -74 -60 -34 -321 -185 -580 -335 -259 -149 -478
-274 -487 -278 -10 -3 -17 -2 -17 4 0 6 51 41 113 79 114 70 194 119 762 471
176 109 321 197 323 196 2 -1 5 -14 6 -27z m-4184 -54 c-1 -11 -666 -419 -677
-415 -4 1 -8 9 -8 18 0 10 46 43 120 86 254 149 550 318 558 318 4 0 7 -3 7
-7z m1187 -65 c-9 -4 -165 -101 -348 -214 -185 -114 -339 -202 -347 -199 -20
7 -10 26 24 46 30 17 266 153 519 299 83 48 154 85 159 82 5 -2 2 -9 -7 -14z
m2994 -37 c-6 -10 -77 -56 -158 -103 -81 -47 -209 -120 -283 -163 -135 -78
-168 -95 -140 -75 17 12 583 359 588 360 1 0 -2 -8 -7 -19z m-4626 -30 c-22
-20 -230 -139 -235 -134 -3 3 0 8 5 10 6 2 60 33 120 68 111 64 127 73 110 56z
m444 -15 c-17 -17 -682 -416 -686 -412 -13 13 10 36 69 70 356 207 614 353
617 350 2 -2 2 -6 0 -8z m2466 -46 c-3 -5 -12 -10 -18 -10 -7 0 -6 4 3 10 19
12 23 12 15 0z m-2352 -24 c-10 -13 -20 -20 -22 -14 -1 5 5 16 15 23 26 20 28
18 7 -9z m4063 -42 c-10 -11 -118 -74 -581 -341 -98 -57 -183 -102 -188 -100
-6 2 143 97 329 212 186 115 362 223 389 241 43 27 51 30 56 15 4 -9 2 -21 -5
-27z m-4163 -33 c-3 -11 -12 -22 -20 -25 -13 -5 -577 -350 -659 -403 -18 -11
-21 -11 -22 4 -1 28 8 63 16 63 9 0 618 349 655 375 25 17 37 11 30 -14z
m1165 -71 c-5 -16 -441 -280 -462 -280 -33 0 -9 16 231 156 253 147 236 138
231 124z m2987 -18 c-67 -41 -130 -75 -123 -67 12 13 132 84 143 85 6 0 -3 -8
-20 -18z m-4125 -49 c0 -5 -7 -16 -14 -26 -15 -19 -690 -437 -706 -437 -5 0
-9 14 -7 31 2 30 17 40 352 234 193 112 356 204 363 204 6 1 12 -2 12 -6z
m4147 -86 l1 -43 -346 -199 c-190 -110 -349 -201 -353 -203 -23 -10 17 60 44
76 18 11 171 108 341 216 170 108 310 196 311 196 1 0 2 -19 2 -43z m-1232 -7
c-3 -5 -12 -10 -18 -10 -7 0 -6 4 3 10 19 12 23 12 15 0z m-2946 -84 c-5 -5
-558 -339 -609 -368 -19 -11 -39 -23 -45 -28 -18 -13 -45 -20 -45 -11 0 5 91
62 203 126 470 273 513 297 496 281z m4181 -64 c0 -17 -36 -40 -285 -182 -358
-205 -357 -201 15 30 140 87 258 159 263 159 4 1 7 -3 7 -7z m-4070 -27 c0
-15 -9 -30 -22 -39 -153 -95 -776 -476 -780 -476 -2 0 -5 19 -6 43 -3 42 -2
42 55 75 32 18 78 44 103 58 25 15 151 87 280 162 129 74 260 150 290 168 66
40 80 42 80 9z m455 -21 c-31 -24 -55 -36 -55 -27 0 10 51 42 65 42 6 0 1 -7
-10 -15z m2305 -14 c0 -5 -10 -15 -22 -21 -23 -12 -23 -12 -4 10 21 23 26 26
26 11z m409 -44 c-2 -2 -15 -9 -29 -15 -24 -11 -24 -11 -6 3 16 13 49 24 35
12z m884 -96 c-15 -14 -191 -119 -373 -223 -19 -10 -127 -72 -240 -137 -113
-65 -218 -122 -235 -125 -27 -7 95 74 693 458 l167 107 3 -31 c2 -21 -3 -38
-15 -49z m-3898 -39 c0 -10 -943 -601 -959 -601 -2 0 -3 18 -2 41 l1 41 220
127 c121 70 330 191 465 269 135 78 252 141 260 139 8 -1 15 -8 15 -16z m3912
-84 c-4 -11 -189 -122 -389 -233 -21 -12 -45 -27 -53 -34 -9 -7 -17 -11 -20
-9 -2 3 11 14 28 25 177 117 431 273 435 269 3 -2 2 -10 -1 -18z m-3398 -111
c-13 -13 -379 -234 -406 -245 -73 -30 -46 -2 49 52 57 32 157 89 223 127 101
59 152 83 134 66z m2431 -5 c0 -8 -425 -251 -437 -251 -4 0 20 17 54 38 34 20
127 78 207 128 129 81 176 104 176 85z m-3555 -11 c-3 -5 -12 -10 -18 -10 -7
0 -6 4 3 10 19 12 23 12 15 0z m4523 -21 c-3 -27 -12 -37 -68 -69 -81 -46
-452 -260 -502 -290 -21 -12 -38 -17 -38 -11 0 6 44 39 98 74 53 35 171 112
262 171 91 59 181 118 200 131 46 31 52 31 48 -6z m-4588 -14 c0 -2 -33 -23
-72 -46 -40 -23 -95 -56 -123 -74 -64 -41 -99 -59 -92 -48 4 5 55 38 114 73
59 34 122 71 138 81 33 20 35 21 35 14z m4590 -154 c0 -28 -11 -36 -177 -132
-98 -56 -253 -146 -345 -200 -93 -53 -168 -95 -168 -93 0 6 673 454 683 454 4
0 7 -13 7 -29z m-4011 -169 c-77 -49 -72 -47 -58 -21 18 34 40 48 73 49 29 0
29 0 -15 -28z m4011 -5 c0 -33 -3 -35 -232 -168 -128 -74 -242 -139 -253 -145
-11 -6 -48 -27 -82 -47 -103 -62 -81 -42 64 57 76 51 217 148 313 214 96 67
178 121 183 122 4 0 7 -15 7 -33z m-4255 14 c-27 -24 -617 -372 -623 -366 -8
8 -23 -2 268 167 135 77 270 156 300 174 56 34 72 41 55 25z m-545 -106 c0 -2
-13 -11 -30 -20 -38 -19 -40 -11 -2 9 31 17 32 18 32 11z m517 -56 c2 -9 -108
-81 -293 -194 -163 -99 -300 -181 -304 -183 -7 -2 -4 58 2 63 2 2 80 47 173
101 94 54 222 128 285 165 63 37 120 66 125 65 6 -2 11 -9 12 -17z m4289 -26
c4 -26 -1 -32 -48 -59 -249 -145 -441 -254 -445 -254 -3 0 75 57 173 127 99
69 208 147 244 173 36 26 66 46 68 45 2 -2 5 -16 8 -32z m-2101 -23 c-3 -5
-16 -15 -28 -21 -21 -10 -21 -9 2 10 25 23 36 27 26 11z m395 -94 c0 -2 -44
-32 -97 -67 -54 -34 -134 -86 -178 -114 -190 -123 -751 -482 -763 -489 -10 -6
-152 -15 -152 -10 0 2 102 64 106 64 2 0 52 29 111 63 134 79 897 519 938 540
34 18 35 19 35 13z m-2060 -20 c-8 -7 -114 -73 -235 -146 -240 -146 -286 -173
-575 -350 -169 -103 -197 -117 -209 -105 -8 8 -13 16 -10 19 2 2 193 113 424
246 231 133 445 257 475 275 63 38 133 75 139 75 3 0 -1 -6 -9 -14z m1490 -10
c-8 -7 -231 -149 -495 -316 -264 -167 -491 -310 -504 -319 -15 -10 -49 -15
-98 -15 -69 -1 -73 0 -52 14 12 8 195 115 408 238 212 123 445 258 516 299
167 97 196 112 220 113 17 0 17 -2 5 -14z m-1300 -29 c-30 -19 -129 -79 -220
-134 -250 -152 -510 -311 -659 -402 -92 -56 -144 -82 -167 -83 -19 -1 -36 1
-38 3 -2 2 62 42 142 88 81 47 244 141 362 209 118 69 231 134 250 145 19 10
98 56 175 101 77 44 149 86 160 93 49 28 44 9 -5 -20z m322 22 c-4 -4 -238
-149 -521 -324 l-514 -317 -63 -2 c-48 -1 -61 2 -51 10 6 6 151 92 322 189
171 98 405 233 520 300 116 67 223 129 239 137 28 15 83 20 68 7z m477 -2 c-2
-2 -49 -31 -104 -64 -121 -73 -431 -264 -500 -308 -27 -17 -137 -85 -243 -150
-181 -110 -204 -120 -261 -116 -8 1 55 41 140 89 84 49 258 149 384 222 260
150 243 140 425 245 74 42 139 81 144 86 5 5 12 6 15 4 2 -3 2 -7 0 -8z m2787
-105 c-2 -10 -49 -44 -120 -84 -65 -38 -120 -68 -123 -68 -2 0 49 40 114 89
65 48 121 87 125 85 3 -2 5 -12 4 -22z m-1441 -11 c-6 -5 -188 -124 -404 -265
-381 -248 -397 -257 -448 -260 -29 -1 -52 2 -51 6 3 7 897 527 908 528 2 0 0
-4 -5 -9z m205 -46 c0 -3 -161 -111 -357 -241 -331 -219 -360 -237 -404 -239
-26 -1 -54 2 -61 6 -7 5 -8 9 -2 9 6 0 193 105 415 234 441 256 409 238 409
231z m206 -58 c-17 -12 -161 -111 -320 -221 l-291 -199 -58 -1 c-32 -1 -60 1
-62 4 -3 4 257 157 504 297 31 17 99 56 151 87 101 59 123 69 76 33z m1014
-27 c-35 -24 -54 -31 -30 -11 14 11 30 21 35 21 6 0 3 -5 -5 -10z m-780 -4 c0
-4 -157 -117 -478 -344 -57 -40 -68 -44 -127 -46 -36 -1 -65 -1 -65 0 0 1 138
82 308 180 169 97 318 185 332 195 27 20 30 21 30 15z m-2675 -14 c-6 -5 -109
-69 -230 -142 -121 -73 -242 -147 -270 -165 -76 -49 -127 -75 -137 -69 -12 8
-9 10 237 151 116 67 253 146 305 177 91 54 115 65 95 48z m-1215 -16 c0 -2
-7 -7 -16 -10 -8 -3 -12 -2 -9 4 6 10 25 14 25 6z m2175 -5 c-24 -21 -562
-349 -582 -354 -60 -14 -13 19 204 143 129 74 267 154 306 177 73 42 89 50 72
34z m-2219 -20 c-3 -5 -43 -30 -88 -55 -46 -26 -77 -41 -70 -34 10 10 147 93
160 97 2 1 1 -3 -2 -8z m2709 -10 c-6 -5 -121 -78 -257 -164 -166 -104 -258
-156 -282 -159 -19 -2 -34 -2 -32 0 5 4 418 242 421 242 2 0 36 20 76 45 73
44 92 53 74 36z m-2770 -137 c-26 -20 -55 -36 -55 -30 0 5 63 46 70 46 3 -1
-4 -8 -15 -16z m4137 -1 c-7 -3 -52 -35 -100 -72 -137 -105 -151 -114 -193
-115 -21 -1 -35 2 -31 6 17 17 327 194 332 190 3 -3 -1 -7 -8 -9z m-2707 -23
c-3 -5 -12 -10 -18 -10 -7 0 -6 4 3 10 19 12 23 12 15 0z m-65 -35 c0 -2 -10
-9 -22 -15 -22 -11 -22 -10 -4 4 21 17 26 19 26 11z m-50 -29 c0 -4 -116 -74
-160 -96 -51 -26 -6 6 73 52 86 50 87 50 87 44z m3045 -61 c-22 -19 -51 -34
-65 -34 -20 -1 -12 7 35 34 33 19 62 34 65 35 3 0 -13 -16 -35 -35z m-225 -5
c-34 -28 -86 -52 -62 -28 11 11 83 56 92 57 3 0 -11 -13 -30 -29z m470 26 c0
-2 -7 -7 -16 -10 -8 -3 -12 -2 -9 4 6 10 25 14 25 6z"/>
</g>
</svg>
