<?xml version="1.0" standalone="no"?>
<!DOCTYPE svg PUBLIC "-//W3C//DTD SVG 20010904//EN"
 "http://www.w3.org/TR/2001/REC-SVG-20010904/DTD/svg10.dtd">
<svg version="1.0" xmlns="http://www.w3.org/2000/svg"
 width="1800.000000pt" height="1800.000000pt" viewBox="0 0 1800.000000 1800.000000"
 preserveAspectRatio="xMidYMid meet">
<metadata>
Created by potrace 1.14, written by Peter Selinger 2001-2017
</metadata>
<g transform="translate(0.000000,1800.000000) scale(0.100000,-0.100000)"
fill="#000000" stroke="none">
<path d="M3504 14449 c-16 -18 -19 -36 -18 -123 2 -86 9 -130 52 -298 68 -263
86 -385 86 -588 1 -191 -12 -293 -59 -475 -69 -268 -177 -497 -455 -960 -313
-522 -427 -773 -489 -1075 -97 -472 -8 -959 279 -1532 145 -289 316 -557 575
-903 170 -227 460 -583 476 -584 4 -1 -3 32 -16 72 -37 114 -48 222 -42 386 9
235 60 423 178 661 279 559 829 1071 1689 1574 454 265 1272 641 1670 768 495
158 1028 434 1407 730 133 103 350 312 455 438 257 307 423 662 484 1035 19
119 13 190 -21 261 -35 72 -85 98 -173 91 -55 -4 -87 -16 -196 -70 -144 -72
-380 -162 -666 -255 -716 -233 -1278 -318 -1596 -242 -67 16 -96 29 -159 75
-222 159 -443 235 -683 235 -141 0 -219 -11 -477 -67 -190 -42 -223 -46 -345
-47 -116 0 -151 4 -250 28 -380 94 -765 287 -1136 568 -60 45 -158 119 -217
164 -189 143 -305 186 -353 133z"/>
<path d="M12020 10699 c-1383 -117 -2837 -725 -4380 -1833 -1065 -764 -2022
-1196 -2829 -1276 -205 -20 -529 -6 -676 30 -22 5 -43 10 -47 10 -15 0 -7 -67
26 -230 148 -723 500 -1424 1046 -2081 134 -160 499 -526 660 -659 523 -434
1088 -752 1677 -944 l141 -46 134 46 c274 94 605 238 864 377 441 236 727 438
1314 931 199 167 334 283 955 820 547 472 966 819 1335 1106 1425 1106 2482
1593 3340 1539 249 -16 439 -67 665 -179 187 -93 301 -177 474 -347 80 -78
146 -141 148 -139 5 5 -193 322 -294 471 -632 929 -1352 1584 -2178 1981 -455
218 -893 344 -1425 410 -157 19 -778 28 -950 13z"/>
<path d="M2244 10653 c-491 -768 -736 -1426 -830 -2228 -25 -211 -25 -709 0
-920 65 -555 205 -1032 442 -1507 841 -1682 2619 -2692 4519 -2567 241 15 705
80 705 98 0 3 -49 26 -108 51 -139 57 -436 208 -582 295 -267 159 -538 351
-780 555 -174 146 -545 518 -684 685 -567 682 -943 1417 -1107 2160 -31 141
-69 379 -69 431 0 26 -10 39 -62 80 -102 78 -437 420 -540 549 -381 478 -663
1041 -811 1620 -65 251 -81 361 -82 547 0 93 0 168 0 168 0 0 -5 -8 -11 -17z"/>
</g>
</svg>
