<?xml version="1.0" encoding="UTF-8"?>
<!-- Created with Inkscape (http://www.inkscape.org/) -->
<svg width="24" height="24" version="1.1" viewBox="0 0 24 24" xmlns="http://www.w3.org/2000/svg">
 <g stroke-width=".096">
  <path d="m0 7.68v-7.68h23.04v15.36h-23.04zm8.616 7.1378c0.2772-0.0333 0.50381-0.08692 0.50359-0.11917-2.304e-4 -0.032245-0.32052-0.22296-0.71177-0.42381-1.166-0.59859-2.3907-1.8623-3.026-3.1226-0.11528-0.22867-0.29226-0.73893-0.39328-1.1339-0.15287-0.59771-0.26382-0.80806-0.66165-1.2544-0.26289-0.29496-0.6302-0.82595-0.81624-1.18-0.35898-0.68314-0.65629-1.7413-0.55986-1.9926 0.10923-0.28465-0.15893-0.022931-0.39921 0.38963-0.77261 1.3265-1.0074 2.9656-0.63389 4.4258 0.25278 0.98836 0.67838 1.759 1.4003 2.5357 1.3465 1.4486 3.2478 2.1216 5.298 1.8753zm2.3887-0.78398c0.7082-0.3575 1.112-0.66217 3.0113-2.2719 3.0986-2.6262 4.3012-3.3304 5.712-3.3445 0.71518-0.00714 1.027 0.10464 1.5725 0.5636 0.16473 0.13861 0.29951 0.21175 0.29951 0.16254 0-0.20668-0.9813-1.4617-1.5947-2.0396-1.1817-1.1132-2.4749-1.6279-4.0973-1.6306-1.9905-0.0033463-3.6741 0.64243-6.3322 2.4287-1.5951 1.072-2.4489 1.4292-3.5518 1.486-0.96438 0.049711-0.9557 0.037475-0.65234 0.91921 0.60864 1.769 2.0111 3.2771 3.717 3.9968 0.72005 0.30378 0.80126 0.29232 1.916-0.2704zm-5.957-5.4178c0.0022896-1.403 1.4568-2.6936 4.3573-3.8663 1.3245-0.53553 1.8922-0.87976 2.427-1.4718 0.47844-0.52958 0.66467-0.92312 0.68159-1.4404 0.018289-0.55912-0.10757-0.5923-0.95725-0.25237-0.35042 0.14019-0.98796 0.3225-1.4168 0.40513l-0.77963 0.15024-0.57033-0.26988c-0.55578-0.26299-0.58791-0.26692-1.2599-0.15402-0.61937 0.10407-0.73864 0.097205-1.1721-0.067482-0.26539-0.10084-0.73713-0.36194-1.0483-0.58022-0.31118-0.21828-0.64538-0.39688-0.74267-0.39688-0.15839 0-0.1684 0.047664-0.095815 0.456 0.19425 1.0927 0.12725 1.4232-0.54012 2.6648-0.61362 1.1415-0.61884 1.1577-0.61884 1.9192 0 0.70019 0.032365 0.83158 0.36654 1.488 0.29353 0.57659 1.2334 1.92 1.3433 1.92 0.013767 0 0.025401-0.2268 0.025853-0.504z" fill="#fff"/>
  <path d="m16.746 8.556c0.08052-0.15571 0.28612-0.39246 0.45689-0.5261l0.31049-0.243-0.28459-0.10955c-0.30235-0.11639-1.5024-0.082834-1.8097 0.050596-0.13235 0.057478-0.16948 0.043801-0.13795-0.05081 0.07777-0.2333 0.53042-0.49818 1.0521-0.61568l0.51223-0.11536-0.25938-0.16995c-0.35462-0.23236-1.4039-0.34716-2.2775-0.24919-0.39833 0.044671-0.73605 0.069418-0.75047 0.054992-0.01442-0.014426 0.15834-0.095827 0.38391-0.18089 1.6359-0.61689 3.0123-0.59167 4.3389 0.079515 0.55534 0.28098 1.297 0.88135 1.5765 1.2762l0.18349 0.25919-0.63796 0.009048c-0.81759 0.011595-1.5471 0.18552-2.2471 0.53574l-0.5563 0.27833z" fill="#fefefe"/>
  <path d="m5.736 9.4404c0.066-0.026632 0.174-0.026632 0.24 0s0.012 0.048421-0.12 0.048421c-0.132 0-0.186-0.021789-0.12-0.048421z" fill="#fefbf8"/>
  <path d="m5.76 6.8758c0-0.019935 0.0756-0.095535 0.168-0.168 0.15226-0.11941 0.15566-0.11602 0.036245 0.036245-0.12541 0.15991-0.20425 0.21077-0.20425 0.13175z" fill="#fdf8f1"/>
  <path d="m14.952 6.4644c0.066-0.026631 0.174-0.026631 0.24 0 0.066 0.026632 0.012 0.048421-0.12 0.048421s-0.186-0.021789-0.12-0.048421z" fill="#fdf6ec"/>
  <path d="m6.7127 13.08-0.23273-0.264 0.264 0.23273c0.24675 0.21752 0.30802 0.29527 0.23273 0.29527-0.017196 0-0.136-0.1188-0.264-0.264z" fill="#fdf4e5"/>
  <path d="m19.47 7.9984c0.0693-0.027732 0.1521-0.024321 0.184 0.00758 0.0319 0.0319-0.0248 0.05459-0.126 0.050421-0.11184-0.00461-0.13458-0.027354-0.058-0.058zm0.005754-0.67842c-0.11941-0.15226-0.11602-0.15566 0.036246-0.036245 0.15991 0.12541 0.21077 0.20425 0.13175 0.20425-0.01993 0-0.09553-0.0756-0.168-0.168z" fill="#fceee2"/>
  <path d="m6.9509 12.84-0.18288-0.216 0.216 0.18288c0.20299 0.17186 0.2597 0.24912 0.18288 0.24912-0.018217 0-0.11542-0.0972-0.216-0.216z" fill="#fcf1de"/>
  <path d="m7.95 1.6624c0.0693-0.027732 0.1521-0.024321 0.184 0.00758 0.0319 0.0319-0.0248 0.054589-0.126 0.050421-0.11183-0.00461-0.13458-0.027354-0.058-0.058z" fill="#fcecd1"/>
  <path d="m16.058 5.8855c0.09341-0.02434 0.223-0.02274 0.288 0.00356 0.06499 0.026297-0.01143 0.046211-0.16983 0.044255-0.1584-0.00196-0.21158-0.023472-0.11817-0.047812z" fill="#fae2c8"/>
  <path d="m7.6098 14.813c0.093405-0.02434 0.223-0.02274 0.288 0.0036 0.064995 0.0263-0.011427 0.04621-0.16983 0.04425-0.1584-2e-3 -0.21158-0.02347-0.11817-0.04781z" fill="#fbe2b9"/>
  <path d="m1.7467 8.976c0.00196-0.1584 0.023472-0.21158 0.047812-0.11817s0.022739 0.223-0.00356 0.288c-0.026294 0.064995-0.046208-0.011427-0.044252-0.16983z" fill="#fadfb0"/>
  <path d="m16.494 6.9424c0.0693-0.027732 0.1521-0.024321 0.184 0.00758 0.0319 0.0319-0.0248 0.054589-0.126 0.050421-0.11184-0.00461-0.13458-0.027354-0.058-0.058z" fill="#f8c88a"/>
  <path d="m15.721 5.5001c0.11942-0.022963 0.29222-0.022091 0.384 0.00194 0.09179 0.024028-0.0059 0.042816-0.21712 0.04175-0.2112-0.00107-0.2863-0.020725-0.16688-0.043687z" fill="#f8c470"/>
  <path d="m4.9036 8.584c0.00461-0.11183 0.027354-0.13458 0.058-0.058 0.027732 0.0693 0.024321 0.1521-0.00758 0.184-0.0319 0.0319-0.05459-0.0248-0.050421-0.126z" fill="#f7c269"/>
  <path d="m6.6167 13.08-0.23273-0.264 0.264 0.23273c0.24675 0.21752 0.30802 0.29527 0.23273 0.29527-0.017196 0-0.136-0.1188-0.264-0.264z" fill="#f6be60"/>
  <path d="m7.0007 12.792-0.23273-0.264 0.264 0.23273c0.24675 0.21752 0.30802 0.29527 0.23273 0.29527-0.017196 0-0.136-0.1188-0.264-0.264z" fill="#f6bc5a"/>
  <path d="m19.572 7.32c-0.11941-0.15226-0.11602-0.15566 0.036246-0.036245 0.15991 0.12541 0.21077 0.20425 0.13175 0.20425-0.01993 0-0.09553-0.0756-0.168-0.168z" fill="#f6ba59"/>
  <path d="m4.2629 8.904-0.18288-0.216 0.216 0.18288c0.20299 0.17186 0.2597 0.24912 0.18288 0.24912-0.018217 0-0.11542-0.0972-0.216-0.216z" fill="#f6b852"/>
  <path d="m11.568 3.36c0.09557-0.1056 0.19536-0.192 0.22176-0.192s-0.03019 0.0864-0.12576 0.192c-0.09557 0.1056-0.19536 0.192-0.22176 0.192s0.03019-0.0864 0.12576-0.192z" fill="#f6b74e"/>
  <path d="m6.336 14.586c-1.0727-0.27864-1.8208-0.68763-2.6091-1.4263-1.9444-1.8221-2.42-4.352-1.2643-6.7247l0.35234-0.72338 0.070907 0.432c0.16767 1.0215 0.92149 2.424 1.5893 2.9568 0.21234 0.16943 0.32521 0.34231 0.32589 0.49919 0.00272 0.62679 0.56626 1.8815 1.2801 2.8502 0.505 0.68528 1.4892 1.5309 2.235 1.9203 0.4573 0.23879 0.49142 0.27655 0.29992 0.33188-0.43231 0.1249-1.5768 0.06666-2.2801-0.11604zm2.4225-0.57064c-1.5917-0.79669-3.0979-2.6421-3.4277-4.1998l-0.066066-0.312h0.6387c1.1613 0 2.227-0.4551 4.1986-1.7929 1.6685-1.1321 3.155-1.8013 4.5508-2.0485 0.98791-0.17497 2.4188-0.081367 3.2046 0.20965 1.145 0.42401 2.342 1.3833 3.1644 2.536l0.33382 0.46793-0.29261-0.20836c-1.4151-1.0077-3.6082-0.077323-7.2029 3.0555-0.56838 0.49537-1.3166 1.1276-1.6628 1.4051-0.71192 0.57056-2.0471 1.2716-2.4218 1.2716-0.13711 0-0.59476-0.17291-1.017-0.38424zm8.1291-5.1763c0.69606-0.44338 1.5787-0.69727 2.4799-0.71335 0.56142-0.010015 0.79167-0.049007 0.792-0.13412 8.64e-4 -0.22139-1.1-1.2208-1.6886-1.533-1.1632-0.61698-2.3861-0.75622-3.6956-0.42075-0.78263 0.20051-1.8766 0.65247-1.7897 0.73938 0.03033 0.030329 0.29886 0.00455 0.59673-0.05729 0.73704-0.15301 2.1307-0.15311 2.5941-1.824e-4l0.37992 0.12538-0.52578 0.1714c-0.32143 0.10478-0.60971 0.27628-0.74172 0.44123-0.34071 0.42575-0.28522 0.5116 0.23037 0.35643 0.4907-0.14768 1.4479-0.17787 1.6465-0.051929 0.09568 0.060678 0.07221 0.1148-0.09816 0.22643-0.22221 0.14559-0.82334 1.1309-0.68996 1.1309 0.03827 0 0.26777-0.12624 0.50999-0.28053zm-12.437-0.60747c-0.89502-1.2061-1.2599-2.3839-0.99196-3.2022 0.067314-0.2056 0.3295-0.74102 0.58263-1.1898 0.60846-1.0788 0.72635-1.5642 0.57689-2.3754-0.11882-0.64487-0.088713-0.80433 0.12182-0.64519 1.2507 0.94545 1.902 1.1752 2.8164 0.99341 0.58532-0.11634 0.62164-0.11162 1.1744 0.15256 0.55511 0.26532 0.58873 0.26958 1.2563 0.15933 0.37726-0.062303 0.99537-0.22528 1.3736-0.36216 0.88633-0.32079 1.0636-0.33136 1.1014-0.06568 0.055593 0.3904-0.36589 1.1541-0.93832 1.7001-0.5683 0.54207-1.1409 0.85654-2.6234 1.4408-2.3346 0.92013-3.8799 2.3171-3.9363 3.5584-0.010861 0.23899-0.030637 0.43483-0.043946 0.4352s-0.22456-0.26933-0.46946-0.59933z" fill="#f6b74c"/>
 </g>
</svg>
